<svg xmlns="http://www.w3.org/2000/svg" viewBox="0 0 64 64">
  <rect width="64" height="64" rx="16" fill="#fffaf0"/>
  <path d="M11 33a21 21 0 0 1 42 0" fill="none" stroke="#4faee8" stroke-width="8" stroke-linecap="round"/>
  <path d="M18 33a14 14 0 0 1 28 0" fill="none" stroke="#ff6758" stroke-width="7" stroke-linecap="round"/>
  <path d="M24 33a8 8 0 0 1 16 0" fill="none" stroke="#ffd04f" stroke-width="6" stroke-linecap="round"/>
  <path d="M16 39c8-3 16-1 24 5v12c-8-5-16-7-24-4Z" fill="#ff6758" stroke="#27344c" stroke-width="2"/>
  <path d="M48 39c-8-3-16-1-24 5v12c8-5 16-7 24-4Z" fill="#ffd04f" stroke="#27344c" stroke-width="2"/>
  <path d="M32 43v14" stroke="#27344c" stroke-width="2" stroke-linecap="round"/>
</svg>
